<svg width="21" height="20" viewBox="0 0 21 20" fill="none" xmlns="http://www.w3.org/2000/svg">
<path d="M15.5829 13.2733H4.58271C2.05538 13.2733 0 11.218 0 8.69064C0 6.43979 1.64905 4.53522 3.83009 4.17357C4.83125 1.66021 7.25525 0 9.99063 0C11.4735 0 12.8768 0.480331 14.0469 1.38793C14.3388 1.61414 14.3918 2.03443 14.1656 2.32486C13.9394 2.61669 13.5191 2.66975 13.2287 2.44354C12.2946 1.71886 11.1747 1.33627 9.99063 1.33627C7.68951 1.33627 5.66485 2.80659 4.95273 4.99461C4.86755 5.25432 4.63437 5.43584 4.36209 5.45399C2.66557 5.56849 1.33627 6.98993 1.33627 8.68924C1.33627 10.4793 2.79263 11.9371 4.5841 11.9371H15.5829C17.6829 11.9371 19.392 10.228 19.392 8.12793C19.392 6.02788 17.6829 4.31879 15.5829 4.31879C15.4628 4.31879 15.3455 4.32577 15.2282 4.33694C14.8554 4.37185 14.5356 4.09957 14.5021 3.73234C14.4686 3.36511 14.7395 3.03977 15.1067 3.00626C15.2645 2.9923 15.4223 2.98252 15.5829 2.98252C18.4202 2.98252 20.7269 5.29062 20.7269 8.12793C20.7269 10.9652 18.4188 13.2733 15.5829 13.2733Z" fill="#00AE6B"/>
<path d="M3.97805 16.717C3.9208 16.717 3.86216 16.71 3.80491 16.6946C3.44885 16.5997 3.23661 16.2324 3.33295 15.8764L3.58708 14.9283C3.68203 14.5722 4.04926 14.36 4.40532 14.4563C4.76138 14.5513 4.97362 14.9185 4.87728 15.2746L4.62315 16.2227C4.54356 16.5215 4.27267 16.7184 3.97805 16.7184V16.717Z" fill="#00AE6B"/>
<path d="M3.09835 19.9985C3.0411 19.9985 2.98385 19.9916 2.92521 19.9762C2.56915 19.8813 2.35691 19.514 2.45325 19.158L2.70738 18.2099C2.80233 17.8538 3.16677 17.6416 3.52562 17.7365C3.88168 17.8315 4.09392 18.1987 3.99758 18.5548L3.74345 19.5029C3.66386 19.8017 3.39437 19.9985 3.09835 19.9985Z" fill="#00AE6B"/>
<path d="M6.83076 16.717C6.77351 16.717 6.71486 16.71 6.65761 16.6946C6.30155 16.5997 6.08931 16.2324 6.18566 15.8764L6.43979 14.9283C6.53474 14.5722 6.90197 14.36 7.25803 14.4563C7.61409 14.5513 7.82633 14.9185 7.72998 15.2746L7.47586 16.2227C7.39627 16.5215 7.12538 16.7184 6.83076 16.7184V16.717Z" fill="#00AE6B"/>
<path d="M5.95084 19.9987C5.8936 19.9987 5.83495 19.9917 5.7777 19.9764C5.42164 19.8814 5.2094 19.5142 5.30575 19.1581L5.55988 18.21C5.65483 17.854 6.02206 17.6417 6.37812 17.7381C6.73418 17.833 6.94642 18.2003 6.85007 18.5563L6.59594 19.5044C6.51635 19.8032 6.24547 20.0001 5.95084 20.0001V19.9987Z" fill="#00AE6B"/>
<path d="M9.68319 16.717C9.62594 16.717 9.5673 16.71 9.51005 16.6946C9.15399 16.5997 8.94175 16.2324 9.03809 15.8764L9.29222 14.9283C9.38717 14.5722 9.7544 14.36 10.1105 14.4563C10.4665 14.5513 10.6788 14.9185 10.5824 15.2746L10.3283 16.2227C10.2487 16.5215 9.97781 16.7184 9.68319 16.7184V16.717Z" fill="#00AE6B"/>
<path d="M8.80369 19.9987C8.74644 19.9987 8.68779 19.9917 8.63055 19.9764C8.27449 19.8814 8.06225 19.5142 8.15859 19.1581L8.41272 18.21C8.50767 17.854 8.8749 17.6417 9.23096 17.7381C9.58702 17.833 9.79926 18.2003 9.70291 18.5563L9.44879 19.5044C9.3692 19.8032 9.09831 20.0001 8.80369 20.0001V19.9987Z" fill="#00AE6B"/>
<path d="M12.536 16.7166C12.4787 16.7166 12.4215 16.7096 12.3628 16.6942C12.0068 16.5993 11.7945 16.232 11.8909 15.876L12.145 14.9279C12.2399 14.5718 12.6044 14.3596 12.9632 14.4545C13.3193 14.5495 13.5315 14.9167 13.4352 15.2728L13.1811 16.2209C13.1015 16.5197 12.832 16.7166 12.536 16.7166Z" fill="#00AE6B"/>
<path d="M11.6563 19.9982C11.599 19.9982 11.5404 19.9912 11.4831 19.9759C11.1271 19.8809 10.9148 19.5137 11.0112 19.1576L11.2653 18.2095C11.3603 17.8535 11.7275 17.6412 12.0835 17.7376C12.4396 17.8325 12.6518 18.1998 12.5555 18.5558L12.3014 19.5039C12.2218 19.8027 11.9509 19.9996 11.6563 19.9996V19.9982Z" fill="#00AE6B"/>
<path d="M15.3887 16.717C15.3314 16.717 15.2728 16.71 15.2155 16.6946C14.8595 16.5997 14.6472 16.2324 14.7436 15.8764L14.9977 14.9283C15.0926 14.5722 15.4599 14.36 15.8159 14.4563C16.172 14.5513 16.3842 14.9185 16.2879 15.2746L16.0338 16.2227C15.9542 16.5215 15.6833 16.7184 15.3887 16.7184V16.717Z" fill="#00AE6B"/>
<path d="M14.509 19.9987C14.4517 19.9987 14.3931 19.9917 14.3358 19.9764C13.9798 19.8814 13.7675 19.5142 13.8639 19.1581L14.118 18.21C14.2129 17.854 14.5802 17.6417 14.9362 17.7381C15.2923 17.833 15.5045 18.2003 15.4082 18.5563L15.1541 19.5044C15.0745 19.8032 14.8036 20.0001 14.509 20.0001V19.9987Z" fill="#00AE6B"/>
</svg>
