<svg width="70" height="70" viewBox="0 0 70 70" fill="none" xmlns="http://www.w3.org/2000/svg">
<g clip-path="url(#clip0_169_38)">
<path d="M35.8154 66.7607H31.2748C30.8842 66.7607 30.5676 66.4448 30.5676 66.0551C30.5676 65.6653 30.8842 65.3495 31.2748 65.3495H35.8154C36.206 65.3495 36.5224 65.6653 36.5224 66.0551C36.5224 66.4448 36.2058 66.7607 35.8154 66.7607Z" fill="white"/>
<path d="M34.3562 54.904C34.1614 54.4878 33.665 54.3078 33.2474 54.5018C32.8297 54.6958 32.649 55.1906 32.8437 55.6068C33.0385 56.023 33.5349 56.2031 33.9525 56.009C34.3702 55.815 34.5509 55.3202 34.3562 54.904Z" fill="white"/>
<path d="M31.6023 59.4125L26.8484 51.0164C26.6563 50.677 26.7761 50.2467 27.1162 50.0547C27.4565 49.8632 27.8874 49.9828 28.0797 50.322L32.5119 58.1502L36.3691 56.3577L31.8532 49.6394C31.6357 49.3157 31.7222 48.8773 32.0466 48.6602C32.3708 48.4429 32.8101 48.5294 33.0277 48.8531L38.0038 56.2562C38.2418 56.6104 38.1014 57.1096 37.715 57.289L32.5164 59.7049C32.4202 59.7497 31.9124 60.0709 31.6023 59.4125Z" fill="white"/>
<path d="M61.2807 56.5739C57.6905 56.5739 54.7695 53.6546 54.7695 50.0661C54.7695 46.4776 57.6905 43.5582 61.2807 43.5582C64.8708 43.5582 67.7918 46.4776 67.7918 50.0661C67.7918 53.6546 64.8708 56.5739 61.2807 56.5739ZM61.2807 44.9697C58.4702 44.9697 56.1837 47.2559 56.1837 50.0663C56.1837 52.8763 58.4702 55.1627 61.2807 55.1627C64.0912 55.1627 66.3776 52.8765 66.3776 50.0663C66.3776 47.2559 64.0912 44.9697 61.2807 44.9697Z" fill="white"/>
<path d="M34.3946 15.9417C30.8043 15.9417 27.8834 13.0224 27.8834 9.43391C27.8834 5.84543 30.8043 2.92615 34.3946 2.92615C37.9848 2.92615 40.9057 5.84543 40.9057 9.43391C40.9057 13.0224 37.9848 15.9417 34.3946 15.9417ZM34.3946 4.33763C31.584 4.33763 29.2975 6.62383 29.2975 9.43405C29.2975 12.2443 31.584 14.5305 34.3946 14.5305C37.2051 14.5305 39.4916 12.2443 39.4916 9.43405C39.4916 6.62383 37.205 4.33763 34.3946 4.33763Z" fill="white"/>
<path d="M60.178 62.1932H57.8519L57.8522 58.3144C57.8522 57.9248 57.5356 57.6088 57.145 57.6088C56.7546 57.6088 56.4379 57.9246 56.4379 58.3144L56.4376 62.1932H10.5116L10.5126 47.8914C10.5126 47.5018 10.196 47.1858 9.80543 47.1858C9.41497 47.1858 9.09829 47.5016 9.09829 47.8914L9.09731 62.1932H6.77275C6.38215 62.1932 6.06561 62.5109 6.06561 62.9007C6.06561 66.736 9.19209 69.8561 13.035 69.8561H53.9157C57.7585 69.8561 60.885 66.736 60.885 62.8988C60.8851 62.5092 60.5686 62.1932 60.178 62.1932ZM53.9158 68.4449H13.0351C10.2113 68.4449 7.87273 66.3314 7.52469 63.6046H59.4265C59.0787 66.3305 56.74 68.4449 53.9158 68.4449Z" fill="white"/>
<path d="M24.6054 42.4993C23.8662 42.4993 23.6386 41.464 24.3065 41.1539L25.0559 40.8056C25.4096 40.6412 25.8304 40.794 25.9953 41.1473C26.1602 41.5005 26.0069 41.9204 25.6529 42.0848L24.9035 42.4331C24.8069 42.4782 24.7054 42.4993 24.6054 42.4993Z" fill="white"/>
<path d="M25.3923 44.4273C24.6531 44.4273 24.4255 43.392 25.0934 43.0819L25.8428 42.7336C26.1966 42.5689 26.6173 42.7218 26.7822 43.0753C26.9472 43.4285 26.7939 43.8484 26.4398 44.0128L25.6904 44.3611C25.5938 44.4062 25.4923 44.4273 25.3923 44.4273Z" fill="white"/>
<path d="M26.5072 46.3177C25.768 46.3177 25.5402 45.2825 26.2081 44.9723L26.9574 44.6239C27.3115 44.4593 27.7322 44.6123 27.8969 44.9655C28.0619 45.3189 27.9086 45.7388 27.5546 45.9031L26.8054 46.2514C26.7086 46.2965 26.6071 46.3177 26.5072 46.3177Z" fill="white"/>
<path d="M55.2115 31.3177H44.2102C42.8935 29.0239 41.3934 26.9456 39.8446 25.2919C38.5553 23.9152 36.1564 21.7155 34.5747 22.4501C34.063 22.6879 33.7784 23.1746 33.6213 23.6951L31.3284 31.3177H15.255C13.8684 29.9507 11.9638 29.1054 9.86454 29.1054C5.6322 29.1054 2.1889 32.5396 2.1889 36.7609C2.1889 40.9821 5.6322 44.4163 9.86454 44.4163C10.9704 44.4163 12.0212 44.18 12.972 43.7583L12.9979 58.7179C12.9986 59.1072 13.315 59.4224 13.7049 59.4224H13.7061C14.0967 59.4217 14.4127 59.1053 14.412 58.7155L14.3857 42.942C16.296 41.5482 17.5399 39.2972 17.5399 36.761C17.5399 36.7485 17.5391 36.7364 17.5389 36.7239H27.3917C26.2364 37.7206 25.0013 38.532 23.907 39.0406L21.0809 40.354C18.6689 41.4748 17.5871 44.419 18.7158 46.8312C19.8549 49.2666 22.77 50.3239 25.2127 49.1884L28.0388 47.8752C30.9525 46.5212 35.7797 45.8994 38.8147 47.2029L46.0683 50.3178C47.223 50.8373 48.2392 50.2975 48.6555 49.1562C49.407 47.0957 48.9483 42.2486 46.7964 36.7239H52.5753V58.7169C52.5753 59.1067 52.8919 59.4225 53.2825 59.4225C53.6731 59.4225 53.9896 59.1067 53.9896 58.7169V36.0182C53.9896 35.6284 53.6731 35.3126 53.2825 35.3126H46.2146C45.8345 34.4369 45.4237 33.5756 44.9823 32.729H55.2112C55.8881 32.729 56.4389 33.2784 56.4389 33.9534L56.4383 37.6353C56.4383 38.0251 56.7549 38.341 57.1453 38.341H57.1455C57.5359 38.341 57.8526 38.0252 57.8526 37.6354L57.8532 33.9534C57.8535 32.5 56.6682 31.3177 55.2115 31.3177ZM9.86454 43.005C6.41186 43.005 3.60304 40.2039 3.60304 36.7609C3.60304 33.3178 6.41186 30.5167 9.86454 30.5167C13.3171 30.5167 16.1259 33.3178 16.1259 36.7609C16.1259 40.2039 13.3171 43.005 9.86454 43.005ZM17.4005 35.3124C17.2207 34.3802 16.8694 33.5084 16.3832 32.7289H30.7243C30.2414 33.6298 29.5896 34.5048 28.8491 35.3124H17.4005ZM19.9973 46.2341C19.1307 44.4133 20.1048 42.2995 21.9065 41.527C22.435 43.7988 23.4377 45.9393 24.844 47.8032C24.844 47.8031 21.601 49.6036 19.9973 46.2341ZM26.1555 47.1937C24.7096 45.3541 23.7033 43.2034 23.2184 40.9172C23.2184 40.9172 25.5165 39.8061 26.0393 39.4798C26.5691 41.836 27.6032 44.0444 29.0737 45.9633C28.4876 46.1522 26.1555 47.1937 26.1555 47.1937ZM39.374 45.9064C36.8505 44.8226 33.4438 44.8929 30.555 45.5569C28.8957 43.5518 27.7794 41.1665 27.3043 38.6108C29.4745 36.9821 31.5501 34.6952 32.4873 32.2779C33.0289 30.8839 33.382 29.3987 33.8127 27.967C34.4471 30.9958 35.8589 34.7944 37.423 38.1373C38.6793 40.8225 40.7959 44.7263 42.929 47.4331L39.374 45.9064ZM39.7751 37.0434C39.6102 36.6902 39.1899 36.5371 38.8356 36.7018L38.4254 36.8925L38.0416 36.0723L39.2855 35.4941C40.0942 35.1185 41.0579 35.4682 41.4347 36.2732C41.8074 37.0698 41.4487 38.0427 40.6529 38.4129L39.4075 38.9916L39.0236 38.1712L39.4327 37.9811C39.7867 37.8165 39.9399 37.3967 39.7751 37.0434C39.9399 37.3967 39.6102 36.6902 39.7751 37.0434ZM47.0515 49.1156C46.8927 49.1908 45.8966 48.9479 43.9257 46.4186C42.6602 44.7946 41.3238 42.6606 40.0513 40.2491L41.2499 39.6922C42.7442 38.9976 43.4158 37.1715 42.716 35.6763C42.0097 34.1665 40.2025 33.5108 38.6887 34.215L37.4885 34.7727C35.2747 29.384 34.5297 25.3069 35.0134 23.981C35.064 23.8422 35.1204 23.7096 35.2863 23.7096C35.719 23.7096 36.9594 24.2778 38.8118 26.2557C40.9044 28.4899 42.9118 31.5478 44.4641 34.8655C47.2059 40.7254 48.085 46.5954 47.3271 48.6736C47.2179 48.9721 47.1026 49.0919 47.0515 49.1156C47.1026 49.0919 46.8926 49.1906 47.0515 49.1156Z" fill="white"/>
<path d="M69.0923 11.6893C69.4829 11.6893 69.7994 11.3735 69.7994 10.9837V3.96891C69.7994 3.57915 69.4829 3.26331 69.0923 3.26331H46.3269C45.9364 3.26331 45.62 3.57901 45.6197 3.96863L45.6104 22.2794C45.6101 22.6606 45.9346 22.9854 46.3175 22.9854H69.0924C69.483 22.9854 69.7996 22.6695 69.7996 22.2798V16.7687C69.7996 16.3732 69.4462 15.9837 69.0445 15.9837H47.0277L47.0335 4.67465H68.3851V10.9837C68.3853 11.3735 68.7018 11.6893 69.0923 11.6893ZM68.3853 17.3949V21.5739H47.0249L47.027 17.3949H68.3853Z" fill="white"/>
<path d="M50.2092 20.1758H48.7921C48.4015 20.1758 48.085 19.86 48.085 19.4702C48.085 19.0805 48.4015 18.7646 48.7921 18.7646H50.2092C50.5998 18.7646 50.9163 19.0805 50.9163 19.4702C50.9163 19.86 50.5998 20.1758 50.2092 20.1758Z" fill="white"/>
<path d="M66.6498 18.7645H66.6474V18.762C66.6474 18.3722 66.3309 18.0564 65.9403 18.0564C65.5497 18.0564 65.2331 18.3722 65.2331 18.762V18.7645H65.2306C64.84 18.7645 64.5236 19.0804 64.5236 19.4701C64.5236 19.8599 64.8402 20.1757 65.2306 20.1757H65.2331V20.1782C65.2331 20.568 65.5497 20.8838 65.9403 20.8838C66.3309 20.8838 66.6474 20.568 66.6474 20.1782V20.1757H66.6498C67.0404 20.1757 67.3569 19.8599 67.3569 19.4701C67.3569 19.0804 67.0404 18.7645 66.6498 18.7645Z" fill="white"/>
<path d="M62.7048 18.7646H56.8952C56.6736 18.4532 56.3103 18.2495 55.8987 18.2495C55.4871 18.2495 55.1237 18.4532 54.9022 18.7646H52.6773C52.2867 18.7646 51.9702 19.0804 51.9702 19.4702C51.9702 19.8599 52.2867 20.1758 52.6773 20.1758H54.9022C55.1238 20.487 55.4871 20.6908 55.8987 20.6908C56.3103 20.6908 56.6736 20.487 56.8952 20.1758H62.7048C63.0954 20.1758 63.4119 19.8599 63.4119 19.4702C63.4119 19.0804 63.0954 18.7646 62.7048 18.7646Z" fill="white"/>
<path d="M59.2117 13.7532L54.4832 11.2578C53.7397 10.8652 53.7389 9.76303 54.4834 9.3706L59.212 6.87511C59.9095 6.50705 60.7802 7.03121 60.7802 7.81871V12.8098C60.7802 13.5203 60.1952 14.132 59.2117 13.7532ZM55.7204 10.3142L59.366 12.2381V8.39033L55.7204 10.3142Z" fill="white"/>
<path d="M57.1463 41.4102C57.6476 41.4102 58.0539 41.0045 58.0539 40.5041C58.0539 40.0037 57.6476 39.598 57.1463 39.598C56.6451 39.598 56.2387 40.0037 56.2387 40.5041C56.2387 41.0045 56.6451 41.4102 57.1463 41.4102Z" fill="white"/>
<path d="M69.0924 14.7482C69.5936 14.7482 70 14.3425 70 13.8421C70 13.3417 69.5936 12.936 69.0924 12.936C68.5911 12.936 68.1848 13.3417 68.1848 13.8421C68.1848 14.3425 68.5911 14.7482 69.0924 14.7482Z" fill="white"/>
<path d="M6.09168 25.4008H0.70714C0.31654 25.4008 0 25.085 0 24.6952V10.7896C0 10.3998 0.31654 10.084 0.70714 10.084H6.09182C6.48242 10.084 6.79896 10.3998 6.79896 10.7896V24.6952C6.79882 25.085 6.48228 25.4008 6.09168 25.4008ZM1.41414 23.9895H5.38468V11.4952H1.41414V23.9895Z" fill="white"/>
<path d="M19.755 25.7691H10.6925C10.3019 25.7691 9.98552 25.4533 9.98552 25.0635C9.98552 24.6738 10.3021 24.3579 10.6925 24.3579H19.755C20.3363 24.3579 20.8092 23.8861 20.8092 23.3062C20.8092 22.7203 20.3314 22.2436 19.7439 22.2436H17.69C17.382 22.2436 17.1101 22.0447 17.0166 21.7531C16.8681 21.3047 17.2078 20.821 17.6864 20.821H20.7476C21.3289 20.821 21.8017 20.3492 21.8017 19.7694C21.8017 19.1835 21.3238 18.7068 20.7365 18.7068H18.3028C17.9241 18.7068 17.6056 18.3949 17.5909 18.0184C17.5755 17.6242 17.9011 17.2841 18.2965 17.2841H21.7401C22.3213 17.2841 22.7941 16.8123 22.7941 16.2326C22.7941 15.6467 22.3163 15.1701 21.729 15.1701H18.5175C18.1269 15.1701 17.8104 14.8543 17.8104 14.4645C17.8104 14.0748 18.1269 13.7475 18.5175 13.7475H22.7328C23.3139 13.7475 23.7867 13.2758 23.7867 12.6959C23.7887 12.1174 23.3072 11.6333 22.7271 11.6333L13.6038 11.6144C13.566 11.6143 13.5282 11.6112 13.491 11.6052C12.9986 11.5247 12.7396 11.2787 12.609 11.0865C12.4784 10.8943 12.3452 10.5629 12.4525 10.0764C12.4604 10.04 12.4714 10.0043 12.4851 9.96971C12.8048 9.15911 13.2104 7.97905 13.3356 7.40743C13.7179 5.66331 13.1816 3.70065 11.8954 2.05411C11.1988 4.77277 10.348 7.00787 9.36126 8.70985C9.16568 9.04697 8.73294 9.16233 8.39512 8.96731C8.05702 8.77201 7.94166 8.34039 8.1371 8.00313C9.17814 6.20763 10.0655 3.74489 10.7741 0.683226C10.9792 -0.202274 12.1209 0.165366 12.5446 0.632966C14.422 2.70413 15.2344 5.34943 14.7171 7.70913C14.5851 8.31127 14.2302 9.36435 13.9104 10.2038L22.7285 10.2217C24.0792 10.2217 25.2053 11.3502 25.2009 12.698C25.2009 13.6649 24.6376 14.504 23.821 14.906C24.0663 15.2896 24.2084 15.7446 24.2084 16.2325C24.2084 17.201 23.6452 18.0407 22.8286 18.4428C23.0738 18.8264 23.2159 19.2815 23.2159 19.7694C23.2159 20.7379 22.6527 21.5777 21.8361 21.9797C22.0814 22.3635 22.2235 22.8185 22.2235 23.3064C22.2235 24.6641 21.1162 25.7691 19.755 25.7691Z" fill="white"/>
<path d="M3.39934 22.0929C3.94754 22.0929 4.39194 21.6495 4.39194 21.1025C4.39194 20.5556 3.94754 20.1122 3.39934 20.1122C2.85114 20.1122 2.40674 20.5556 2.40674 21.1025C2.40674 21.6495 2.85114 22.0929 3.39934 22.0929Z" fill="white"/>
<path d="M9.10137 35.3711C9.10137 34.0066 8.42069 33.1589 7.32463 33.1589C6.24243 33.1589 5.48657 34.1063 5.48657 35.4639C5.49903 37.0047 6.39307 37.6944 7.27381 37.6944C8.18353 37.6944 9.10137 36.976 9.10137 35.3711ZM7.29439 36.648C6.75539 36.648 6.69533 35.7893 6.70373 35.4318C6.70373 34.9764 6.82805 34.2054 7.29439 34.2054C7.80777 34.2054 7.88449 34.9612 7.88449 35.4117C7.88435 35.7835 7.82695 36.648 7.29439 36.648Z" fill="white"/>
<path d="M11.4247 33.1591L7.28516 40.4469H8.43792L12.5774 33.1591H11.4247Z" fill="white"/>
<path d="M12.4776 35.8713C11.5631 35.8713 10.6404 36.5869 10.6404 38.1862C10.6519 39.7202 11.5459 40.4068 12.4268 40.4068C13.3315 40.4068 14.2443 39.6884 14.2443 38.0838C14.2444 36.719 13.5674 35.8713 12.4776 35.8713ZM12.4474 39.3603C11.9161 39.3603 11.8424 38.5147 11.8466 38.1441C11.8466 37.5534 12.0345 36.9177 12.4474 36.9177C12.9806 36.9177 13.0382 37.7613 13.0382 38.1241C13.0382 38.4958 12.9806 39.3603 12.4474 39.3603Z" fill="white"/>
<path d="M60.8108 48.7483C60.8108 48.5184 60.9767 48.2728 61.4421 48.2728C61.8492 48.2728 62.1743 48.4256 62.5169 48.6212L62.8463 47.7527C62.5389 47.549 62.194 47.4278 61.8268 47.3864V46.6228H60.9464V47.4403C60.2616 47.6161 59.7706 48.1519 59.7706 48.8411C59.7706 49.6913 60.4398 50.0718 61.1642 50.3556C61.8295 50.625 61.9196 50.8728 61.9196 51.1006C61.9196 51.4405 61.6248 51.669 61.1873 51.669C60.7259 51.669 60.3473 51.4819 59.9739 51.2333L59.6571 52.1157C59.9904 52.3904 60.4219 52.5237 60.8484 52.5648V53.3943H61.7288V52.5164C62.5114 52.3328 62.9622 51.7587 62.9622 51.0462C62.9622 50.1116 62.2671 49.7046 61.6539 49.4547C60.9325 49.1569 60.8108 48.9961 60.8108 48.7483Z" fill="white"/>
<path d="M34.6716 8.87039C33.95 8.57247 33.8284 8.41161 33.8284 8.16381C33.8284 7.93393 33.9943 7.68837 34.4596 7.68837C34.8667 7.68837 35.1918 7.84111 35.5344 8.03669L35.8638 7.16827C35.5564 6.96457 35.2116 6.84333 34.8443 6.80189V6.03833H33.9639V6.85579C33.2791 7.03163 32.7882 7.56741 32.7882 8.25663C32.7882 9.10685 33.4574 9.48737 34.1817 9.77115C34.847 10.0405 34.9372 10.2883 34.9372 10.5161C34.9372 10.856 34.6423 11.0845 34.2048 11.0845C33.7434 11.0845 33.3648 10.8975 32.9914 10.6488L32.6746 11.5312C33.008 11.8059 33.4394 11.9392 33.8659 11.9803V12.8099H34.7463V11.9319C35.5289 11.7484 35.9797 11.1742 35.9797 10.4618C35.9799 9.52727 35.2848 9.12029 34.6716 8.87039C35.2848 9.12029 33.9502 8.57247 34.6716 8.87039Z" fill="white"/>
</g>
<defs>
<clipPath id="clip0_169_38">
<rect width="70" height="70" fill="white"/>
</clipPath>
</defs>
</svg>
