<svg width="41" height="44" viewBox="0 0 41 44" fill="none" xmlns="http://www.w3.org/2000/svg">
<path fill-rule="evenodd" clip-rule="evenodd" d="M39.0622 11.891H15.893C14.75 11.891 13.8267 10.8798 13.9586 9.73676C13.9586 9.71478 13.9586 9.69279 13.9586 9.69279C14.2664 7.20882 16.2887 5.25241 18.7727 5.01061C19.5421 4.92268 20.2895 5.01061 20.9709 5.23043C20.9929 5.18646 20.9929 5.16448 21.0149 5.12052C22.114 2.5706 24.6419 0.768066 27.6095 0.768066C28.2909 0.768066 28.9284 0.855994 29.5439 1.03185C31.852 1.66933 33.6985 3.47186 34.4239 5.73602C35.1274 5.45025 35.9187 5.34034 36.7321 5.42827C38.9303 5.67007 40.7108 7.42864 40.9746 9.62685C40.9746 9.69279 40.9966 9.78072 40.9966 9.84667C41.0625 10.9678 40.1613 11.891 39.0622 11.891Z" fill="#CBBEBB"/>
<path opacity="0.2" fill-rule="evenodd" clip-rule="evenodd" d="M30.1155 4.17529C29.544 5.1425 28.313 5.49421 27.3677 6.10971C26.0488 6.96701 25.0816 8.48378 23.5209 8.72558C23.1032 8.79153 22.6416 8.74756 22.2679 8.52774C21.8283 8.28594 21.5425 7.82432 21.3666 7.36269C21.1688 6.85711 21.0589 6.30755 21.0149 5.758C20.9929 5.36232 21.0809 4.94466 21.2567 4.59295C22.4657 2.30681 24.8398 0.768066 27.5876 0.768066C27.7634 0.768066 27.9393 0.768064 28.1371 0.790046C29.4121 0.877975 30.4672 1.93312 30.3793 3.23006C30.3793 3.55979 30.2914 3.88952 30.1155 4.17529Z" fill="white"/>
<path opacity="0.3" fill-rule="evenodd" clip-rule="evenodd" d="M27.3678 1.99902C27.2359 1.99902 27.104 1.99902 26.9941 1.99902C26.5544 2.02101 26.0928 2.10893 25.6971 2.28479C25.4334 2.41668 25.1696 2.57056 24.9278 2.74642C24.5761 3.03218 24.2243 3.42786 24.3562 3.88948C24.4222 4.13129 24.62 4.32913 24.8618 4.39507C25.2355 4.483 25.5213 4.26318 25.7851 4.06534C26.1148 3.80156 26.4445 3.53777 26.8182 3.31795C26.9941 3.23002 27.1699 3.14209 27.3458 3.07615C27.5217 3.0102 27.7195 3.05416 27.8514 2.92227C27.9393 2.83434 27.9613 2.72443 27.9613 2.61452C27.9613 2.43867 27.9173 2.26281 27.8074 2.13092C27.7195 2.04299 27.5876 2.02101 27.4557 2.02101C27.4117 1.99902 27.3898 1.99902 27.3678 1.99902Z" fill="white"/>
<path opacity="0.3" fill-rule="evenodd" clip-rule="evenodd" d="M23.5868 4.41699C23.6527 4.41699 23.7407 4.43897 23.8066 4.48294C23.9605 4.59285 24.1144 4.83465 24.1144 5.03249C24.1363 5.29628 23.9605 5.58204 23.6967 5.69195C23.5868 5.73592 23.4329 5.7579 23.301 5.73592C23.1911 5.71394 23.0812 5.66997 23.0153 5.58204C22.8174 5.36222 22.9053 4.96654 23.0372 4.74672C23.1691 4.57087 23.389 4.41699 23.5868 4.41699Z" fill="white"/>
<path opacity="0.3" fill-rule="evenodd" clip-rule="evenodd" d="M19.74 6.24153C19.4103 6.19757 19.0146 6.26351 18.7068 6.32946C18.3771 6.3954 18.0474 6.50532 17.7396 6.68117C17.4978 6.81306 17.278 7.03288 17.1681 7.31865C17.0802 7.56045 17.0142 7.95613 17.3 8.08802C17.4099 8.15397 17.5418 8.15397 17.6517 8.13199C17.9375 8.08803 18.1793 7.93415 18.4211 7.78028C18.7508 7.58244 19.0585 7.40658 19.4322 7.3846C19.6081 7.36262 19.784 7.3846 19.9598 7.34063C20.2236 7.27469 20.3775 6.98892 20.3115 6.72514C20.2676 6.41739 20.0038 6.28549 19.74 6.24153Z" fill="white"/>
<path fill-rule="evenodd" clip-rule="evenodd" d="M35.3032 14.6826C35.3252 15.5179 35.0614 16.3313 34.6218 17.0347C33.9184 18.1118 32.6874 18.8592 31.2146 18.8592H4.19858C2.59388 18.8592 1.0991 17.914 0.483605 16.4412C0.241802 15.8916 0.10991 15.2981 0.0439635 14.6826C-6.71495e-07 14.3089 0 13.9132 0 13.5396C0.131893 10.3961 2.15424 7.25267 5.20975 7.67033C5.20975 7.67033 5.20976 7.67033 5.23174 7.67033C5.18777 7.20871 5.20975 6.76907 5.25372 6.35141C5.97913 0.460207 15.0797 -3.01296 19.0805 3.55968C19.4102 4.08725 19.696 4.68077 19.9378 5.34023C23.9825 1.4494 31.0387 5.47212 29.6978 10.7918C28.8185 14.3529 28.8185 14.3529 29.6978 10.7918C32.0499 10.4621 33.6766 11.2534 34.5558 12.4624C35.0614 13.1439 35.3032 13.9132 35.3032 14.6826Z" fill="#EDEDED"/>
<path opacity="0.5" fill-rule="evenodd" clip-rule="evenodd" d="M19.3003 6.94496C19.2563 7.64838 19.0585 8.46172 18.421 8.76947C17.8714 9.03325 17.212 8.79145 16.6844 8.46172C16.1788 8.13199 15.7172 7.69235 15.1237 7.51649C13.9586 7.16478 12.7716 7.93415 11.8923 8.76947C11.013 9.60479 10.1118 10.572 8.90276 10.7479C7.82563 10.9017 6.72653 10.3302 6.04508 9.4729C5.62742 8.94533 5.36364 8.32983 5.18778 7.69235C5.18778 7.69235 5.18778 7.69235 5.20976 7.69235C4.59426 1.03177 14.75 -3.49654 19.0585 3.55971C19.3003 4.65882 19.3882 5.80189 19.3003 6.94496Z" fill="white"/>
<path opacity="0.5" fill-rule="evenodd" clip-rule="evenodd" d="M8.9027 11.671C8.26522 12.2645 7.21008 11.9568 6.44071 12.3085C5.40755 12.7921 5.27566 14.2429 4.46232 15.0342C3.60502 15.8915 2.13222 15.8476 1.16501 15.1222L1.14302 15.1442C0.285722 14.4847 -0.0879747 13.3856 0.131846 12.3304C0.659416 9.64863 2.54988 7.29655 5.18773 7.67024C5.14376 7.20862 5.16575 6.76898 5.20971 6.35132C6.79242 6.63709 8.22126 7.67024 8.92468 9.09908C9.12252 9.49476 9.25442 9.91242 9.29838 10.3521C9.36433 10.8357 9.25442 11.3413 8.9027 11.671Z" fill="white"/>
<path opacity="0.9" fill-rule="evenodd" clip-rule="evenodd" d="M13.8707 1.42739C13.6948 1.09766 13.3651 0.899817 12.9914 0.899817C12.0681 0.877835 11.1449 0.965764 10.3755 1.40541C10.1337 1.5373 9.8919 1.73514 9.80397 1.99892C9.76001 2.10883 9.76001 2.24072 9.76001 2.37262C9.76001 2.6364 9.82596 2.92217 10.0018 3.12001C10.1777 3.31785 10.4415 3.38379 10.6833 3.38379C10.9251 3.36181 11.1669 3.27388 11.3867 3.12001C11.5406 3.0101 11.6725 2.87821 11.8483 2.76829C12.1341 2.57046 12.4638 2.43856 12.7935 2.37262C13.0573 2.32865 13.3651 2.30667 13.6069 2.1528C13.8487 1.99892 14.0245 1.66919 13.8707 1.42739Z" fill="white"/>
<path opacity="0.9" fill-rule="evenodd" clip-rule="evenodd" d="M8.66092 3.49365C8.50704 3.49365 8.33118 3.53762 8.22127 3.64753C7.95749 3.86735 7.75965 4.13113 7.62776 4.43888C7.53983 4.61474 7.49587 4.83456 7.53983 5.01042C7.56181 5.20825 7.67172 5.4061 7.84758 5.49402C7.97947 5.55997 8.15533 5.55997 8.3092 5.53799C8.81479 5.45006 9.25443 5.07636 9.43029 4.61474C9.49623 4.4169 9.5402 4.21906 9.47425 4.02122C9.40831 3.73545 9.14452 3.5596 8.85876 3.53762L8.66092 3.49365Z" fill="white"/>
<path opacity="0.9" fill-rule="evenodd" clip-rule="evenodd" d="M4.17658 8.70341C3.45117 8.81332 2.76973 9.18702 2.3081 9.78054C1.91243 10.2861 1.64864 10.9016 1.53873 11.5391C1.51675 11.7369 1.51675 11.9568 1.64864 12.0887C1.73657 12.1546 1.86846 12.1766 1.97837 12.1766C2.15423 12.1986 2.37405 12.1986 2.52792 12.1106C2.79171 11.9787 2.9236 11.649 3.03351 11.3632C3.25333 10.7697 3.62703 10.1762 4.24253 9.97837C4.28649 9.97837 4.30847 9.95639 4.35244 9.95639C4.57226 9.89044 4.74811 9.75856 4.85802 9.56072C5.12181 9.05513 4.61622 8.61548 4.17658 8.70341Z" fill="white"/>
<path opacity="0.9" fill-rule="evenodd" clip-rule="evenodd" d="M20.8171 5.71393C20.6632 5.84582 20.5093 5.97771 20.4214 6.15357C20.3335 6.30744 20.3115 6.50528 20.3775 6.68114C20.5313 7.0988 21.0149 7.12078 21.3666 6.94492C21.6524 6.79105 21.8722 6.54925 22.114 6.35141C22.5317 6.04366 23.0153 5.8678 23.5209 5.73591C23.6748 5.69194 23.8506 5.64798 23.9825 5.53807C24.1144 5.42816 24.1804 5.2523 24.1144 5.09843C24.0485 4.94455 23.8506 4.87861 23.6748 4.85662C23.1032 4.79068 22.5317 4.87861 22.0041 5.09843L21.7403 5.20834C21.3886 5.34023 21.0809 5.51609 20.8171 5.71393Z" fill="white"/>
<path opacity="0.2" fill-rule="evenodd" clip-rule="evenodd" d="M30.0056 12.4185C30.4012 12.3965 30.7749 12.3965 31.1486 12.4405C31.8081 12.5064 32.4895 12.7702 32.9072 13.2758C34.0723 14.6387 33.171 16.661 31.5883 17.1446C30.9288 17.3425 30.2254 17.3425 29.522 17.3205C28.6207 17.2765 27.6535 17.1666 26.8841 16.661C25.851 15.9796 25.4992 14.3969 26.4445 13.4956C26.8182 13.1439 27.3238 12.968 27.8074 12.8142C28.5328 12.6163 29.2582 12.4625 30.0056 12.4185Z" fill="#CBBEBB"/>
<path opacity="0.2" fill-rule="evenodd" clip-rule="evenodd" d="M22.7735 14.5506C22.4218 14.7265 22.092 14.9683 21.9162 15.2101C21.7623 15.4299 21.8063 15.6937 21.8942 15.9355C21.9601 16.1114 22.0481 16.2872 22.18 16.4191C22.5976 16.7928 23.5209 16.7928 23.9605 16.507C24.3342 16.2652 24.642 15.6937 24.576 15.2321C24.5321 14.9243 24.2683 14.5946 24.0045 14.4407C23.6748 14.2649 23.2131 14.3308 22.7735 14.5506Z" fill="#CBBEBB"/>
<path fill-rule="evenodd" clip-rule="evenodd" d="M8.11132 25.3219C8.04537 25.4758 7.95745 25.6077 7.86952 25.7396C6.99023 27.1245 5.73725 27.3883 4.63815 26.8607C3.93472 26.509 3.45112 25.8715 3.36319 25.0582C3.29724 24.5086 3.42913 23.8711 3.78085 23.1677C4.30842 22.0906 5.58338 21.563 6.50662 21.2992C7.10014 21.1234 7.71564 21.4311 7.95744 22.0246C8.30916 22.9039 8.63889 24.2668 8.11132 25.3219Z" fill="#75BEEA"/>
<path opacity="0.2" fill-rule="evenodd" clip-rule="evenodd" d="M7.45193 25.5857C7.69374 25.6297 7.78167 25.9154 7.62779 26.1133C6.77049 27.1904 5.62742 27.3882 4.63822 26.8826C4.00074 26.5749 3.5611 26.0473 3.40723 25.3659C3.36327 25.19 3.47318 25.0361 3.62705 24.9922C4.37444 24.8163 4.92399 25.5857 5.62742 25.8275C6.33085 26.0253 6.81445 25.4758 7.45193 25.5857Z" fill="white"/>
<path opacity="0.5" fill-rule="evenodd" clip-rule="evenodd" d="M5.38559 22.4204C5.29766 22.4204 5.20973 22.4424 5.1218 22.4864C4.83604 22.6182 4.55027 22.926 4.48432 23.2337C4.39639 23.5855 4.68216 23.9811 5.03387 23.7393C5.31964 23.5415 5.78126 23.1678 5.75928 22.7721C5.75928 22.5303 5.58343 22.4204 5.38559 22.4204Z" fill="white"/>
<path opacity="0.5" fill-rule="evenodd" clip-rule="evenodd" d="M4.59425 25.7396C4.55028 25.6517 4.48434 25.5638 4.41839 25.4978C4.39641 25.4978 4.39641 25.4759 4.37443 25.4759C4.26452 25.4099 4.13262 25.3879 4.0447 25.4978C3.95677 25.6077 3.95677 25.7616 4.02272 25.8715C4.06668 25.9375 4.13263 26.0034 4.22055 26.0694C4.24254 26.0914 4.26452 26.0914 4.2865 26.1133C4.30848 26.1353 4.35245 26.1353 4.37443 26.1133C4.46236 26.1133 4.57227 26.0694 4.61623 26.0034C4.6602 25.9375 4.63821 25.8715 4.61623 25.8056C4.59425 25.7616 4.59425 25.7616 4.59425 25.7396Z" fill="white"/>
<path opacity="0.5" fill-rule="evenodd" clip-rule="evenodd" d="M5.07793 25.9375C5.14387 25.9155 5.2318 25.9375 5.31973 25.9375C5.3637 25.9375 5.40766 25.9595 5.45163 25.9815C5.49559 26.0254 5.51757 26.0694 5.51757 26.1353C5.51757 26.2233 5.47361 26.2672 5.40766 26.2672C5.29775 26.2892 5.14388 26.3332 5.05595 26.2453C4.94604 26.1793 4.94604 25.9815 5.07793 25.9375Z" fill="white"/>
<path fill-rule="evenodd" clip-rule="evenodd" d="M17.212 26.1572C17.168 26.2671 17.1021 26.377 17.0361 26.465C16.3986 27.4761 15.4754 27.674 14.684 27.2783C14.1565 27.0145 13.8048 26.5529 13.7608 25.9594C13.7168 25.5637 13.8048 25.0801 14.0685 24.5745C14.4642 23.8051 15.3875 23.3875 16.0689 23.2116C16.5086 23.0797 16.9482 23.3215 17.1241 23.7392C17.3439 24.3987 17.6077 25.3879 17.212 26.1572Z" fill="#75BEEA"/>
<path opacity="0.2" fill-rule="evenodd" clip-rule="evenodd" d="M16.7285 26.3551C16.9043 26.3771 16.9703 26.5969 16.8603 26.7288C16.2448 27.5202 15.4095 27.652 14.6841 27.3003C14.2225 27.0585 13.8928 26.6848 13.7829 26.1793C13.7609 26.0693 13.8268 25.9374 13.9587 25.9155C14.5083 25.7836 14.9039 26.3331 15.4095 26.531C15.8931 26.6848 16.2448 26.2672 16.7285 26.3551Z" fill="white"/>
<path opacity="0.5" fill-rule="evenodd" clip-rule="evenodd" d="M15.2116 24.0469C15.1456 24.0469 15.0797 24.0689 15.0137 24.0908C14.8159 24.2008 14.5961 24.3986 14.5521 24.6404C14.4862 24.8822 14.706 25.1899 14.9698 25.0141C15.1676 24.8602 15.5193 24.5964 15.4973 24.3107C15.4973 24.1128 15.3654 24.0469 15.2116 24.0469Z" fill="white"/>
<path opacity="0.5" fill-rule="evenodd" clip-rule="evenodd" d="M14.8159 26.5748C14.772 26.4869 14.706 26.399 14.6401 26.333C14.6181 26.333 14.6181 26.3111 14.5961 26.3111C14.4862 26.2451 14.3543 26.2231 14.2664 26.333C14.1784 26.443 14.2004 26.5968 14.2664 26.7067C14.3103 26.7947 14.3763 26.8386 14.4642 26.9046C14.4862 26.9266 14.5082 26.9266 14.5302 26.9485C14.5521 26.9485 14.5961 26.9485 14.6181 26.9485C14.706 26.9485 14.8159 26.9046 14.8599 26.8386C14.9038 26.7727 14.8819 26.7067 14.8599 26.6408C14.8159 26.5968 14.8159 26.5748 14.8159 26.5748Z" fill="white"/>
<path fill-rule="evenodd" clip-rule="evenodd" d="M27.6974 25.3219C27.6314 25.4758 27.5435 25.6077 27.4556 25.7396C26.5763 27.1245 25.3233 27.3883 24.2242 26.8607C23.5208 26.509 23.0372 25.8715 22.9492 25.0582C22.8833 24.5086 23.0152 23.8711 23.3669 23.1677C23.8945 22.0906 25.1694 21.563 26.0927 21.2992C26.6862 21.1234 27.3017 21.4311 27.5435 22.0246C27.8732 22.9039 28.2249 24.2668 27.6974 25.3219Z" fill="#75BEEA"/>
<path opacity="0.2" fill-rule="evenodd" clip-rule="evenodd" d="M27.038 25.5857C27.2798 25.6297 27.3677 25.9154 27.2139 26.1133C26.3566 27.1904 25.2135 27.3882 24.2243 26.8826C23.5868 26.5749 23.1472 26.0473 22.9933 25.3659C22.9493 25.19 23.0592 25.0361 23.2131 24.9922C23.9605 24.8163 24.5101 25.5857 25.2135 25.8275C25.8949 26.0253 26.3785 25.4758 27.038 25.5857Z" fill="white"/>
<path opacity="0.5" fill-rule="evenodd" clip-rule="evenodd" d="M24.9716 22.4204C24.8837 22.4204 24.7958 22.4424 24.7079 22.4864C24.4221 22.6182 24.1363 22.926 24.0704 23.2337C23.9825 23.5855 24.2682 23.9811 24.6199 23.7393C24.9057 23.5415 25.3673 23.1678 25.3453 22.7721C25.3453 22.5303 25.1695 22.4204 24.9716 22.4204Z" fill="white"/>
<path opacity="0.5" fill-rule="evenodd" clip-rule="evenodd" d="M24.1583 25.7396C24.1144 25.6517 24.0484 25.5638 23.9825 25.4978C23.9605 25.4978 23.9605 25.4759 23.9385 25.4759C23.8286 25.4099 23.6967 25.3879 23.6088 25.4978C23.5209 25.6077 23.5209 25.7616 23.5868 25.8715C23.6308 25.9375 23.6967 26.0034 23.7846 26.0694C23.8066 26.0914 23.8286 26.0914 23.8506 26.1133C23.8726 26.1353 23.9165 26.1353 23.9385 26.1133C24.0264 26.1133 24.1363 26.0694 24.1803 26.0034C24.2243 25.9375 24.2023 25.8715 24.1803 25.8056C24.1803 25.7616 24.1803 25.7616 24.1583 25.7396Z" fill="white"/>
<path opacity="0.5" fill-rule="evenodd" clip-rule="evenodd" d="M24.664 25.9375C24.7299 25.9155 24.8178 25.9375 24.9058 25.9375C24.9497 25.9375 24.9937 25.9595 25.0377 25.9815C25.0816 26.0254 25.1036 26.0694 25.1036 26.1353C25.1036 26.2233 25.0596 26.2672 24.9937 26.2672C24.8838 26.2892 24.7299 26.3332 24.642 26.2453C24.5101 26.1793 24.5101 25.9815 24.664 25.9375Z" fill="white"/>
<path fill-rule="evenodd" clip-rule="evenodd" d="M11.079 35.1041C11.0131 35.258 10.9251 35.3899 10.8372 35.5217C10.0019 36.8407 8.77088 37.1264 7.71574 36.5989C7.0343 36.2472 6.57268 35.6536 6.48475 34.8623C6.4188 34.3347 6.5507 33.7192 6.88043 33.0378C7.38601 32.0046 8.63899 31.477 9.51828 31.2352C10.0898 31.0814 10.7053 31.3671 10.9031 31.9167C11.2549 32.774 11.5846 34.0709 11.079 35.1041Z" fill="#75BEEA"/>
<path opacity="0.2" fill-rule="evenodd" clip-rule="evenodd" d="M10.4415 35.3459C10.6833 35.3898 10.7492 35.6536 10.6173 35.8515C9.78203 36.9066 8.68292 37.0825 7.73769 36.5989C7.1222 36.2911 6.68255 35.7855 6.55066 35.1261C6.5067 34.9722 6.61661 34.7963 6.77048 34.7524C7.49589 34.5765 8.02346 35.3239 8.7049 35.5437C9.34239 35.7855 9.80401 35.258 10.4415 35.3459Z" fill="white"/>
<path opacity="0.5" fill-rule="evenodd" clip-rule="evenodd" d="M8.41918 32.2903C8.33125 32.2903 8.24332 32.3123 8.17738 32.3562C7.91359 32.4881 7.62782 32.7739 7.56188 33.0816C7.47395 33.4114 7.75972 33.807 8.08945 33.5652C8.37522 33.3674 8.81486 33.0157 8.79288 32.642C8.81486 32.4002 8.61702 32.3123 8.41918 32.2903Z" fill="white"/>
<path opacity="0.5" fill-rule="evenodd" clip-rule="evenodd" d="M7.67174 35.5216C7.62778 35.4337 7.58382 35.3458 7.49589 35.3018C7.47391 35.3018 7.47391 35.2798 7.45192 35.2798C7.34201 35.2139 7.2321 35.1919 7.14418 35.3018C7.05625 35.3897 7.07823 35.5436 7.14418 35.6535C7.18814 35.7194 7.25409 35.7854 7.32003 35.8294C7.34202 35.8513 7.36399 35.8513 7.38598 35.8733C7.40796 35.8953 7.45193 35.8953 7.47391 35.8733C7.56184 35.8733 7.64976 35.8294 7.69373 35.7634C7.71571 35.6975 7.71571 35.6315 7.69373 35.5656C7.67175 35.5436 7.67174 35.5216 7.67174 35.5216Z" fill="white"/>
<path opacity="0.5" fill-rule="evenodd" clip-rule="evenodd" d="M8.13335 35.6975C8.1993 35.6755 8.28722 35.6975 8.37515 35.6975C8.41911 35.6975 8.46308 35.7195 8.50704 35.7415C8.55101 35.7854 8.55101 35.8294 8.57299 35.8954C8.57299 35.9613 8.52903 36.0053 8.46308 36.0272C8.35317 36.0492 8.19929 36.0932 8.11137 36.0053C8.00146 35.9393 8.00146 35.7415 8.13335 35.6975Z" fill="white"/>
<path fill-rule="evenodd" clip-rule="evenodd" d="M21.4545 33.8949C21.3886 34.0268 21.3226 34.1587 21.2347 34.2906C20.4433 35.5436 19.2783 35.8074 18.2891 35.3018C17.6296 34.972 17.19 34.4005 17.1241 33.6531C17.0801 33.1475 17.168 32.554 17.4977 31.9165C17.9814 30.9273 19.1464 30.4437 20.0037 30.2019C20.5533 30.048 21.1248 30.3338 21.3226 30.8614C21.6084 31.6967 21.9381 32.9277 21.4545 33.8949Z" fill="#75BEEA"/>
<path opacity="0.2" fill-rule="evenodd" clip-rule="evenodd" d="M20.8391 34.1368C21.0589 34.1808 21.1468 34.4446 21.0149 34.6204C20.2455 35.6096 19.1904 35.7855 18.2891 35.3239C17.7176 35.0381 17.2999 34.5545 17.168 33.917C17.1461 33.7631 17.234 33.6092 17.3659 33.5653C18.0473 33.3894 18.5529 34.0929 19.1904 34.3127C19.8059 34.5325 20.2455 34.0269 20.8391 34.1368Z" fill="white"/>
<path opacity="0.5" fill-rule="evenodd" clip-rule="evenodd" d="M18.9485 31.2351C18.8606 31.2351 18.7947 31.2571 18.7067 31.3011C18.443 31.4329 18.2012 31.6967 18.1132 31.9825C18.0473 32.2902 18.3111 32.6639 18.6188 32.4441C18.8826 32.2683 19.3003 31.9166 19.3003 31.5648C19.3003 31.345 19.1244 31.2351 18.9485 31.2351Z" fill="white"/>
<path opacity="0.5" fill-rule="evenodd" clip-rule="evenodd" d="M18.2231 34.2907C18.1792 34.2027 18.1352 34.1148 18.0473 34.0708C18.0253 34.0708 18.0253 34.0489 18.0033 34.0489C17.9154 33.9829 17.7835 33.9609 17.6956 34.0708C17.6076 34.1588 17.6296 34.3126 17.6956 34.4006C17.7395 34.4665 17.8055 34.5325 17.8714 34.5764C17.8934 34.5984 17.9154 34.5984 17.9374 34.5984C17.9594 34.5984 18.0033 34.6204 18.0253 34.5984C18.1132 34.5984 18.2012 34.5764 18.2451 34.4885C18.2671 34.4225 18.2671 34.3566 18.2451 34.3126C18.2451 34.2907 18.2231 34.2907 18.2231 34.2907Z" fill="white"/>
<path opacity="0.5" fill-rule="evenodd" clip-rule="evenodd" d="M18.6847 34.4666C18.7507 34.4446 18.8386 34.4666 18.9046 34.4666C18.9485 34.4666 18.9925 34.4885 19.0145 34.5105C19.0584 34.5325 19.0584 34.5985 19.0584 34.6424C19.0584 34.7084 19.0365 34.7523 18.9705 34.7743C18.8826 34.7963 18.7287 34.8403 18.6408 34.7523C18.5529 34.6864 18.5309 34.5105 18.6847 34.4666Z" fill="white"/>
<path fill-rule="evenodd" clip-rule="evenodd" d="M14.816 42.6218C14.772 42.7317 14.7061 42.8416 14.6401 42.9296C14.0026 43.9407 13.0794 44.1386 12.288 43.7429C11.7605 43.4791 11.4088 43.0175 11.3648 42.424C11.3208 42.0283 11.4088 41.5447 11.6725 41.0391C12.0682 40.2697 12.9915 39.8741 13.6729 39.6762C14.1126 39.5443 14.5522 39.7861 14.7281 40.2038C14.9479 40.8633 15.1897 41.8524 14.816 42.6218Z" fill="#75BEEA"/>
<path opacity="0.2" fill-rule="evenodd" clip-rule="evenodd" d="M14.3323 42.7977C14.5082 42.8197 14.5741 43.0395 14.4642 43.1714C13.8487 43.9628 13.0134 44.0947 12.288 43.743C11.8264 43.5231 11.4966 43.1275 11.3867 42.6219C11.3648 42.512 11.4307 42.3801 11.5626 42.3581C12.1121 42.2262 12.5078 42.7758 13.0134 42.9736C13.497 43.1275 13.8487 42.7318 14.3323 42.7977Z" fill="white"/>
<path opacity="0.5" fill-rule="evenodd" clip-rule="evenodd" d="M12.8156 40.5115C12.7496 40.5115 12.6837 40.5335 12.6177 40.5554C12.4199 40.6654 12.2001 40.8632 12.1561 41.105C12.0902 41.3468 12.31 41.6545 12.5738 41.4787C12.7716 41.3248 13.1233 41.061 13.1013 40.7753C13.1013 40.5774 12.9694 40.5115 12.8156 40.5115Z" fill="white"/>
<path opacity="0.5" fill-rule="evenodd" clip-rule="evenodd" d="M12.4199 43.0175C12.376 42.9295 12.31 42.8416 12.2441 42.7757C12.2221 42.7757 12.2221 42.7537 12.2001 42.7537C12.0902 42.6877 11.9583 42.6658 11.8704 42.7757C11.7825 42.8856 11.7825 43.0394 11.8484 43.1494C11.8924 43.2373 11.9583 43.2813 12.0462 43.3472C12.0682 43.3692 12.0902 43.3692 12.1122 43.3912C12.1342 43.4131 12.1781 43.4131 12.2001 43.3912C12.288 43.3912 12.3979 43.3472 12.4419 43.2813C12.4859 43.2153 12.4639 43.1494 12.4419 43.0614C12.4199 43.0395 12.4199 43.0394 12.4199 43.0175Z" fill="white"/>
<path fill-rule="evenodd" clip-rule="evenodd" d="M3.80293 42.6218C3.75897 42.7317 3.69302 42.8416 3.62707 42.9296C2.98959 43.9407 2.06634 44.1386 1.27499 43.7429C0.747418 43.4791 0.395702 43.0175 0.351738 42.424C0.307774 42.0283 0.395704 41.5447 0.659489 41.0391C1.05517 40.2697 1.97841 39.8741 2.65986 39.6762C3.0995 39.5443 3.53914 39.7861 3.715 40.2038C3.93482 40.8633 4.19861 41.8524 3.80293 42.6218Z" fill="#75BEEA"/>
<path opacity="0.2" fill-rule="evenodd" clip-rule="evenodd" d="M3.31927 42.7977C3.49513 42.8197 3.56108 43.0395 3.45117 43.1714C2.83567 43.9628 2.00035 44.0947 1.27494 43.743C0.813316 43.5231 0.483583 43.1275 0.373672 42.6219C0.35169 42.512 0.417637 42.3801 0.54953 42.3581C1.09908 42.2262 1.49476 42.7758 2.00035 42.9736C2.48395 43.1275 2.83567 42.7318 3.31927 42.7977Z" fill="white"/>
<path opacity="0.5" fill-rule="evenodd" clip-rule="evenodd" d="M1.8025 40.5115C1.73656 40.5115 1.67061 40.5335 1.60467 40.5554C1.40683 40.6654 1.18701 40.8632 1.14304 41.105C1.07709 41.3468 1.29691 41.6545 1.5607 41.4787C1.75854 41.3248 2.11025 41.061 2.08827 40.7753C2.08827 40.5774 1.95638 40.5115 1.8025 40.5115Z" fill="white"/>
<path opacity="0.5" fill-rule="evenodd" clip-rule="evenodd" d="M1.40686 43.0175C1.3629 42.9295 1.29695 42.8416 1.23101 42.7757C1.20902 42.7757 1.20902 42.7537 1.18704 42.7537C1.07713 42.6877 0.945239 42.6658 0.857311 42.7757C0.769382 42.8856 0.791365 43.0394 0.857311 43.1494C0.901275 43.2373 0.967223 43.2813 1.05515 43.3472C1.07713 43.3692 1.09911 43.3692 1.1211 43.3912C1.14308 43.4131 1.18704 43.4131 1.20903 43.3912C1.29695 43.3912 1.40686 43.3472 1.45083 43.2813C1.49479 43.2153 1.47281 43.1494 1.45083 43.0614C1.40686 43.0395 1.40686 43.0394 1.40686 43.0175Z" fill="white"/>
</svg>
