<svg width="10" height="20" viewBox="0 0 10 20" fill="none" xmlns="http://www.w3.org/2000/svg">
<path d="M4.69024 20C4.62551 20 4.56078 19.9987 4.49471 19.996C2.03364 19.8975 0.0607488 17.8896 0.00141366 15.4271C-0.030951 14.0962 0.493626 12.8366 1.44973 11.925V3.23916C1.44973 1.45236 2.90209 0 4.68754 0C6.47299 0 7.92671 1.45236 7.92671 3.23916V11.9237C8.8518 12.807 9.37637 14.026 9.37637 15.3112C9.37637 16.5963 8.86528 17.8006 7.93615 18.6919C7.05421 19.5388 5.90796 19.9987 4.69159 19.9987L4.69024 20ZM4.68754 1.28919C3.61277 1.28919 2.73892 2.16304 2.73892 3.23781V12.2123C2.73892 12.4037 2.65397 12.5845 2.50832 12.7072C1.71 13.376 1.26633 14.3564 1.29061 15.3961C1.33241 17.1519 2.79286 18.6366 4.54595 18.7081C5.47778 18.7445 6.36781 18.4101 7.04072 17.7641C7.71364 17.1168 8.08448 16.247 8.08448 15.3139C8.08448 14.3065 7.64082 13.3572 6.86542 12.7085C6.71843 12.5858 6.63482 12.4051 6.63482 12.2136V3.23916C6.63482 2.16439 5.76097 1.29054 4.6862 1.29054L4.68754 1.28919Z" fill="#00AE6B"/>
<path d="M4.70102 3.87122C4.34501 3.87122 4.04294 3.58264 4.04294 3.22663C4.04294 2.87062 4.31939 2.58203 4.6754 2.58203H4.70102C5.05703 2.58203 5.34562 2.87062 5.34562 3.22663C5.34562 3.58264 5.05703 3.87122 4.70102 3.87122Z" fill="#00AE6B"/>
<path d="M4.67551 14.0623C4.3195 14.0623 4.03091 13.7737 4.03091 13.4177V5.48835C4.03091 5.13234 4.3195 4.84375 4.67551 4.84375C5.03152 4.84375 5.32011 5.13234 5.32011 5.48835V13.4163C5.32011 13.7723 5.03152 14.0609 4.67551 14.0609V14.0623Z" fill="#00AE6B"/>
<path d="M4.68757 17.4541C3.50626 17.4541 2.54611 16.4926 2.54611 15.3126C2.54611 14.1326 3.50761 13.1711 4.68757 13.1711C5.86753 13.1711 6.82903 14.1326 6.82903 15.3126C6.82903 16.4926 5.86753 17.4541 4.68757 17.4541ZM4.68757 14.4603C4.21829 14.4603 3.83665 14.842 3.83665 15.3113C3.83665 15.7805 4.21829 16.1622 4.68757 16.1622C5.15686 16.1622 5.53849 15.7805 5.53849 15.3113C5.53849 14.842 5.15686 14.4603 4.68757 14.4603Z" fill="#00AE6B"/>
</svg>
