<svg width="168" height="188" viewBox="0 0 168 188" fill="none" xmlns="http://www.w3.org/2000/svg">
<path fill-rule="evenodd" clip-rule="evenodd" d="M136.645 94.1011C136.645 123.149 113.049 146.745 84.0005 146.745C54.952 146.745 31.356 123.149 31.356 94.1011C31.356 87.8026 32.4841 81.7862 34.4583 76.1457C41.7909 55.8402 61.2505 41.457 84.0005 41.457C91.3331 41.457 98.3837 42.9611 104.776 45.6874C123.484 53.772 136.645 72.3854 136.645 94.1011Z" fill="#FFC34A"/>
<path opacity="0.6" fill-rule="evenodd" clip-rule="evenodd" d="M90.392 78.965C85.8796 78.4949 81.3673 77.5549 76.8549 77.7429C69.4283 78.0249 64.7279 81.8792 61.2496 88.1777C58.2413 93.6301 55.8911 100.305 49.5926 102.655C46.8664 103.689 43.4821 103.407 41.3199 101.433C40.1918 100.305 39.4397 98.8005 38.7817 97.3904C38.7817 97.2964 38.6877 97.2964 38.6877 97.2024C32.9532 83.2893 36.3375 67.214 47.0544 56.6852C56.5492 47.2845 69.6163 41.55 83.9995 41.55C88.0418 41.55 91.8962 42.0201 95.6565 42.8661C104.023 44.7463 110.604 51.3268 111.92 59.7875C112.014 60.1635 112.014 60.4455 112.014 60.8216C113.33 73.7006 101.955 80.1871 90.392 78.965Z" fill="#FFE332"/>
<path opacity="0.3" fill-rule="evenodd" clip-rule="evenodd" d="M56.08 62.4224C55.234 62.4224 54.3879 62.4224 53.6358 62.7044C49.3115 63.8325 45.7392 67.3107 44.3291 71.5411C43.483 74.2673 43.577 77.7456 46.7733 78.8736C47.4313 79.0617 48.0894 79.1557 48.6534 79.1557C51.0976 78.9677 53.0718 77.5575 54.952 76.1474L61.1565 71.4471C62.0025 70.789 62.7546 69.9429 63.1306 68.9089C64.0707 66.4647 62.7546 64.7725 60.9685 63.7385C59.8404 63.0804 58.6183 62.7984 57.3962 62.7044L56.08 62.4224Z" fill="white"/>
<path opacity="0.15" fill-rule="evenodd" clip-rule="evenodd" d="M57.5841 121.456C57.2081 123.524 57.3961 125.687 58.2422 127.567C63.2246 138.942 81.7441 144.77 90.4869 134.617C94.1532 130.387 94.7172 124.088 91.3329 119.576C89.9228 117.602 87.7607 116.286 85.5045 115.346C78.4539 112.055 66.6089 109.235 60.4983 115.534C59.0882 117.226 58.0541 119.294 57.5841 121.456Z" fill="white"/>
<path opacity="0.15" fill-rule="evenodd" clip-rule="evenodd" d="M70.0878 129.071C69.6177 130.387 69.8998 131.986 70.8399 133.208C71.7799 134.43 73.2841 135.276 74.8822 135.84C76.4803 136.31 78.3605 136.498 79.7706 135.464C82.3088 133.49 81.4628 128.883 78.7365 127.473C77.7964 127.003 76.7624 126.815 75.7283 126.627C73.3781 126.345 70.8399 126.533 70.0878 129.071Z" fill="white"/>
<path fill-rule="evenodd" clip-rule="evenodd" d="M84.1886 94.1059C84.1886 94.2001 84.0944 94.2943 84.0002 94.2943C83.906 94.2943 83.8118 94.2001 83.8118 94.1059V94.0117C83.8118 93.9175 83.906 93.8232 84.0002 93.8232H84.0944C84.1886 94.0117 84.1886 94.1059 84.1886 94.1059Z" fill="black"/>
<path fill-rule="evenodd" clip-rule="evenodd" d="M84 32.6206C80.8037 32.6206 78.2655 30.1764 77.9835 27.0741L75.9153 4.32433C75.7273 1.97415 77.5135 0 79.8637 0H88.1364C90.4866 0 92.2727 1.97415 92.0847 4.32433L90.0165 27.0741C89.8285 30.1764 87.1963 32.6206 84 32.6206Z" fill="#FFC34A"/>
<path fill-rule="evenodd" clip-rule="evenodd" d="M30.8857 63.2664C29.2876 65.9926 25.9033 67.0267 23.0831 65.7106L2.30733 56.1218C0.239159 55.0878 -0.606922 52.5496 0.521174 50.5754L4.65753 43.3368C5.78563 41.2687 8.51185 40.7046 10.392 42.1147L29.0996 55.2758C31.7318 57.0619 32.4839 60.5402 30.8857 63.2664Z" fill="#FFC34A"/>
<path fill-rule="evenodd" clip-rule="evenodd" d="M30.8857 124.563C32.4838 127.289 31.7318 130.767 29.0995 132.553L10.3919 145.715C8.51178 147.031 5.87957 146.467 4.65746 144.492L0.521105 137.348C-0.606991 135.374 0.145082 132.742 2.30726 131.707L23.083 122.119C25.9033 120.803 29.2875 121.837 30.8857 124.563Z" fill="#FFC34A"/>
<path fill-rule="evenodd" clip-rule="evenodd" d="M84.001 155.208C87.1972 155.208 89.7355 157.652 90.1115 160.754L92.1797 183.504C92.3677 185.854 90.5815 187.828 88.2313 187.828H79.9586C77.6084 187.828 75.8223 185.854 76.0103 183.504L78.0785 160.754C78.1725 157.652 80.8047 155.208 84.001 155.208Z" fill="#FFC34A"/>
<path fill-rule="evenodd" clip-rule="evenodd" d="M137.114 124.563C138.712 121.837 142.097 120.803 144.917 122.119L165.693 131.707C167.761 132.742 168.607 135.28 167.479 137.254L163.342 144.492C162.214 146.467 159.488 147.125 157.608 145.715L138.9 132.553C136.268 130.767 135.516 127.289 137.114 124.563Z" fill="#FFC34A"/>
<path fill-rule="evenodd" clip-rule="evenodd" d="M137.114 63.2702C135.516 60.544 136.268 57.0657 138.9 55.2796L157.608 42.1186C159.488 40.8025 162.214 41.3665 163.342 43.3407L167.479 50.4852C168.607 52.5534 167.855 55.0916 165.693 56.0317L144.917 65.7144C142.097 67.0305 138.712 65.9964 137.114 63.2702Z" fill="#FFC34A"/>
<path fill-rule="evenodd" clip-rule="evenodd" d="M53.5412 41.5495C52.3191 42.3016 50.7209 41.8315 49.9689 40.7034L43.2943 30.0806C42.3542 28.5765 42.8242 26.5083 44.4224 25.6623C46.0205 24.7222 47.9947 25.3802 48.8408 26.8844L54.6693 37.9772C55.2333 39.2933 54.8573 40.7975 53.5412 41.5495Z" fill="#FFE332"/>
<path fill-rule="evenodd" clip-rule="evenodd" d="M23.3644 94.385C23.3644 95.7951 22.2363 97.0172 20.8262 97.0172L8.32312 97.4872C6.53696 97.5812 5.03284 96.1711 5.03284 94.291C5.03284 92.5048 6.53696 91.0947 8.32312 91.0947L20.8262 91.5648C22.2363 91.7528 23.3644 92.9749 23.3644 94.385Z" fill="#FFE332"/>
<path fill-rule="evenodd" clip-rule="evenodd" d="M54.0115 147.027C55.2336 147.779 55.7036 149.283 55.0456 150.599L49.2171 161.598C48.371 163.196 46.3968 163.76 44.7987 162.914C43.2006 161.974 42.7305 160 43.6706 158.496L50.3452 147.873C51.1912 146.651 52.7894 146.275 54.0115 147.027Z" fill="#FFE332"/>
<path fill-rule="evenodd" clip-rule="evenodd" d="M114.928 146.742C116.151 145.99 117.749 146.46 118.501 147.588L125.175 158.211C126.115 159.715 125.645 161.783 124.047 162.63C122.449 163.57 120.475 162.912 119.629 161.313L113.8 150.221C113.236 148.998 113.612 147.494 114.928 146.742Z" fill="#FFE332"/>
<path fill-rule="evenodd" clip-rule="evenodd" d="M145.107 93.9145C145.107 92.5044 146.235 91.2823 147.645 91.2823L160.148 90.8123C161.934 90.7183 163.438 92.1284 163.438 94.0086C163.438 95.7947 161.934 97.2048 160.148 97.2048L147.645 96.7348C146.235 96.5468 145.107 95.3247 145.107 93.9145Z" fill="#FFE332"/>
<path fill-rule="evenodd" clip-rule="evenodd" d="M114.458 41.2692C113.236 40.5171 112.766 39.013 113.424 37.6969L119.253 26.604C120.099 25.0059 122.073 24.4419 123.671 25.382C125.269 26.322 125.739 28.2962 124.799 29.8003L118.125 40.4231C117.279 41.6452 115.681 42.0213 114.458 41.2692Z" fill="#FFE332"/>
</svg>
