<svg width="74" height="55" viewBox="0 0 74 55" fill="none" xmlns="http://www.w3.org/2000/svg">
<path fill-rule="evenodd" clip-rule="evenodd" d="M42.2777 29.0965C42.2777 38.0803 34.9947 45.3634 26.0111 45.3634C17.0276 45.3634 9.74457 38.0803 9.74457 29.0965C9.74457 27.1371 10.0773 25.2886 10.7058 23.551C12.9609 17.303 18.95 12.8296 26.0111 12.8296C28.3032 12.8296 30.4475 13.3102 32.4069 14.1605C38.2111 16.6375 42.2777 22.4049 42.2777 29.0965Z" fill="#FFC34A"/>
<path opacity="0.6" fill-rule="evenodd" clip-rule="evenodd" d="M27.9703 24.4386C26.5655 24.2907 25.1976 23.995 23.7928 24.0689C21.5007 24.1798 20.0219 25.3629 18.9498 27.3223C18.0255 29.0229 17.3231 31.0563 15.3268 31.7957C14.4765 32.1284 13.4413 32.0175 12.7759 31.426C12.4062 31.0933 12.1844 30.6127 11.9995 30.169C11.9995 30.1321 11.9625 30.1321 11.9625 30.0951C10.188 25.8065 11.2232 20.8155 14.5504 17.5622C17.471 14.6785 21.5376 12.8669 25.974 12.8669C27.2309 12.8669 28.414 13.0148 29.56 13.2736C32.1479 13.8651 34.1812 15.8985 34.5879 18.5234C34.5879 18.6343 34.6248 18.7452 34.6248 18.8561C35.1054 22.775 31.5564 24.8083 27.9703 24.4386Z" fill="#FFE332"/>
<path opacity="0.3" fill-rule="evenodd" clip-rule="evenodd" d="M17.3971 19.2998C17.1383 19.2998 16.8795 19.2998 16.6207 19.3737C15.2898 19.7434 14.1807 20.7786 13.7371 22.1095C13.4783 22.9229 13.5153 23.995 14.5135 24.3647C14.6983 24.4387 14.9201 24.4387 15.105 24.4387C15.8813 24.4017 16.4728 23.9211 17.0643 23.4774L18.9868 22.0356C19.2455 21.8138 19.4674 21.555 19.6152 21.2592C19.911 20.5198 19.5043 19.9653 18.9498 19.6695C18.6171 19.4847 18.2104 19.3737 17.8407 19.3737L17.3971 19.2998Z" fill="white"/>
<path opacity="0.15" fill-rule="evenodd" clip-rule="evenodd" d="M17.8776 37.5628C17.7667 38.1913 17.8037 38.8568 18.0995 39.4483C19.6522 42.9605 25.3455 44.772 28.0442 41.6296C29.1903 40.2986 29.3382 38.3762 28.303 36.9713C27.8594 36.3798 27.194 35.9731 26.5285 35.6404C24.3473 34.6422 20.6873 33.7549 18.8019 35.7143C18.3213 36.2319 17.9885 36.8974 17.8776 37.5628Z" fill="white"/>
<path opacity="0.15" fill-rule="evenodd" clip-rule="evenodd" d="M21.722 39.8895C21.5741 40.2962 21.6481 40.8138 21.9438 41.1835C22.2396 41.5532 22.7202 41.8489 23.2008 41.9968C23.6814 42.1447 24.2729 42.1817 24.7165 41.8859C25.4929 41.2574 25.2341 39.8525 24.4208 39.4089C24.125 39.261 23.7923 39.1871 23.4965 39.1501C22.7202 39.0762 21.9438 39.1131 21.722 39.8895Z" fill="white"/>
<path fill-rule="evenodd" clip-rule="evenodd" d="M26.0846 29.0966C26.0846 29.1336 26.0476 29.1706 26.0106 29.1706C25.9737 29.1706 25.9367 29.1336 25.9367 29.0966C25.9367 29.0966 25.9367 29.0966 25.9367 29.0597C25.9367 29.0227 25.9737 29.0227 26.0106 29.0227H26.0476C26.0846 29.0597 26.0846 29.0966 26.0846 29.0966Z" fill="black"/>
<path fill-rule="evenodd" clip-rule="evenodd" d="M26.011 10.0929C25.0498 10.0929 24.2365 9.35347 24.1256 8.39225L23.4971 1.33093C23.4232 0.628491 24.0147 0 24.7171 0H27.268C27.9704 0 28.5619 0.628491 28.488 1.33093L27.8595 8.39225C27.8225 9.35347 27.0092 10.0929 26.011 10.0929Z" fill="#FFC34A"/>
<path fill-rule="evenodd" clip-rule="evenodd" d="M9.59645 19.5582C9.11585 20.4085 8.04373 20.7412 7.15647 20.3346L0.723778 17.377C0.0583272 17.0812 -0.200459 16.2678 0.169236 15.6394L1.46317 13.4211C1.83286 12.7926 2.64619 12.6078 3.2377 13.0145L9.00494 17.0812C9.85524 17.6357 10.114 18.7079 9.59645 19.5582Z" fill="#FFC34A"/>
<path fill-rule="evenodd" clip-rule="evenodd" d="M9.59645 38.5231C10.0771 39.3735 9.85524 40.4456 9.04191 41.0002L3.2377 45.0669C2.64619 45.4736 1.83286 45.2887 1.46317 44.6602L0.169236 42.442C-0.200459 41.8135 0.0583272 41.0001 0.723778 40.7044L7.15647 37.7098C8.0807 37.3401 9.11585 37.6728 9.59645 38.5231Z" fill="#FFC34A"/>
<path fill-rule="evenodd" clip-rule="evenodd" d="M42.4248 19.5582C41.9442 18.7079 42.1661 17.6357 42.9794 17.0812L48.7836 13.0145C49.3751 12.6078 50.1884 12.7926 50.5581 13.4211L51.8521 15.6394C52.2218 16.2678 51.963 17.0442 51.2975 17.377L44.9018 20.3715C43.9776 20.7412 42.9424 20.4085 42.4248 19.5582Z" fill="#FFC34A"/>
<path fill-rule="evenodd" clip-rule="evenodd" d="M16.6213 12.8675C16.2516 13.0893 15.771 12.9784 15.5122 12.6087L13.4419 9.31838C13.1462 8.83776 13.2941 8.20927 13.7747 7.95048C14.2553 7.65472 14.8838 7.83956 15.1425 8.35715L16.954 11.7954C17.1389 12.1651 16.991 12.6457 16.6213 12.8675Z" fill="#FFE332"/>
<path fill-rule="evenodd" clip-rule="evenodd" d="M7.26727 29.1702C7.26727 29.6138 6.93455 29.9835 6.49091 29.9835L2.60912 30.1314C2.05457 30.1684 1.57397 29.7247 1.57397 29.1702C1.57397 28.6156 2.0176 28.172 2.60912 28.2089L6.49091 28.3568C6.93455 28.3938 7.26727 28.7635 7.26727 29.1702Z" fill="#FFE332"/>
<path fill-rule="evenodd" clip-rule="evenodd" d="M35.4384 12.7926C35.0687 12.5708 34.9209 12.0902 35.1057 11.6835L36.9172 8.2453C37.176 7.76468 37.8045 7.57983 38.2851 7.83862C38.7657 8.13438 38.9136 8.72591 38.6178 9.20652L36.5475 12.4969C36.2887 12.9036 35.8081 13.0145 35.4384 12.7926Z" fill="#FFE332"/>
<path fill-rule="evenodd" clip-rule="evenodd" d="M73.9978 47.9127C74.0348 49.2437 73.6281 50.5376 72.8887 51.6098C71.7796 53.3104 69.8572 54.4935 67.5281 54.4935H24.9762C22.4253 54.4935 20.0963 53.0146 19.0981 50.6855C18.7284 49.8352 18.5066 48.874 18.3957 47.9127C18.3217 47.3212 18.3217 46.6927 18.3217 46.1012C18.5435 41.1472 21.7229 36.1932 26.5289 36.8586C26.5289 36.8586 26.5289 36.8586 26.5659 36.8586C26.492 36.1562 26.5289 35.4538 26.6029 34.7883C27.7489 25.5088 42.0561 20.0002 48.3779 30.3888C48.8955 31.2392 49.3391 32.1634 49.7458 33.1986C56.1415 27.0615 67.1954 33.3834 65.1251 41.7757C63.7203 47.3582 63.7203 47.3582 65.1251 41.7757C68.859 41.2211 71.373 42.4781 72.7778 44.4006C73.5911 45.5097 73.9608 46.7297 73.9978 47.9127Z" fill="#EDEDED"/>
<path opacity="0.5" fill-rule="evenodd" clip-rule="evenodd" d="M48.7847 35.7494C48.7107 36.8585 48.415 38.1525 47.3798 38.6331C46.4926 39.0397 45.4574 38.67 44.6441 38.1525C43.8308 37.6349 43.0914 36.9324 42.1671 36.6367C40.3187 36.0821 38.4702 37.3022 37.0654 38.5961C35.6605 39.8901 34.2557 41.4428 32.3702 41.7016C30.6696 41.9604 28.9321 41.0362 27.8969 39.7052C27.2315 38.8919 26.8248 37.8937 26.5291 36.8955C25.5679 26.4329 41.5756 19.2976 48.341 30.3887C48.7477 32.1263 48.8956 33.9379 48.7847 35.7494Z" fill="white"/>
<path opacity="0.5" fill-rule="evenodd" clip-rule="evenodd" d="M32.4071 43.2176C31.4089 44.1418 29.7453 43.6612 28.5253 44.2527C26.8987 45.0291 26.6768 47.2843 25.4199 48.5413C24.089 49.8722 21.7229 49.7983 20.2072 48.6892H20.1702C18.8023 47.654 18.2478 45.9164 18.5805 44.2527C19.4308 40.0012 22.3884 36.3411 26.529 36.9326C26.529 36.9326 26.529 36.9326 26.5659 36.9326C26.492 36.2302 26.529 35.5278 26.6029 34.8623C29.0799 35.3059 31.372 36.9326 32.481 39.1878C32.7768 39.8163 32.9986 40.4818 33.0726 41.1842C33.1095 41.8497 32.9617 42.7 32.4071 43.2176Z" fill="white"/>
<path opacity="0.9" fill-rule="evenodd" clip-rule="evenodd" d="M40.2435 27.0608C39.9478 26.5432 39.4302 26.2474 38.8387 26.2474C37.3969 26.2104 35.955 26.3583 34.6981 27.0608C34.3284 27.2826 33.9217 27.5783 33.8108 27.985C33.7369 28.1699 33.7369 28.3917 33.7369 28.5765C33.7369 28.9832 33.8478 29.4268 34.1435 29.7596C34.4023 30.0553 34.846 30.2032 35.2157 30.1663C35.5854 30.1293 35.992 29.9814 36.3247 29.7596C36.5835 29.5747 36.8053 29.3899 37.0272 29.205C37.4708 28.8723 37.9884 28.6874 38.5429 28.5765C38.9865 28.5026 39.4302 28.4656 39.7999 28.2438C40.1696 28.022 40.4653 27.4305 40.2435 27.0608Z" fill="white"/>
<path opacity="0.9" fill-rule="evenodd" clip-rule="evenodd" d="M32 30.3159C31.7412 30.3159 31.4824 30.3899 31.2976 30.5377C30.8909 30.8705 30.5951 31.3141 30.3733 31.7947C30.2624 32.0905 30.1885 32.3863 30.2254 32.719C30.2624 33.0147 30.4473 33.3475 30.743 33.4584C30.9648 33.5693 31.2236 33.5693 31.4454 33.5323C32.2588 33.3845 32.9612 32.8299 33.22 32.0535C33.3309 31.7578 33.3678 31.425 33.2939 31.0923C33.183 30.6487 32.7763 30.3529 32.3327 30.3529L32 30.3159Z" fill="white"/>
<path opacity="0.9" fill-rule="evenodd" clip-rule="evenodd" d="M24.9759 38.5247C23.8299 38.7096 22.7578 39.3011 22.0553 40.2253C21.4269 41.0387 21.0202 41.9999 20.8353 42.9981C20.7984 43.2939 20.7984 43.6636 21.0202 43.8484C21.1681 43.9593 21.3529 43.9963 21.5378 43.9963C21.8335 44.0333 22.1293 44.0333 22.425 43.8854C22.8687 43.6636 23.0535 43.183 23.2014 42.7023C23.5711 41.7781 24.1626 40.8169 25.0868 40.5211C25.1608 40.4841 25.1977 40.4841 25.2717 40.4841C25.6044 40.4102 25.9002 40.1514 26.048 39.8556C26.4177 39.0793 25.6414 38.3768 24.9759 38.5247Z" fill="white"/>
<path opacity="0.9" fill-rule="evenodd" clip-rule="evenodd" d="M51.1498 33.8279C50.8911 34.0127 50.6692 34.2346 50.5214 34.5303C50.3735 34.7891 50.3365 35.0849 50.4474 35.3437C50.6692 36.0091 51.4456 36.0461 52.0001 35.7503C52.4438 35.5285 52.7765 35.1218 53.1832 34.8261C53.8117 34.3455 54.625 34.0497 55.4013 33.8649C55.6601 33.7909 55.9189 33.717 56.1038 33.5691C56.2886 33.4212 56.4365 33.1255 56.3256 32.8667C56.2147 32.6079 55.8819 32.5339 55.6231 32.497C54.7359 32.3861 53.8117 32.5339 52.9983 32.9036L52.5917 33.0515C52.0741 33.2364 51.5935 33.4951 51.1498 33.8279Z" fill="white"/>
<path opacity="0.2" fill-rule="evenodd" clip-rule="evenodd" d="M65.6425 44.3651C66.2709 44.3282 66.8624 44.3282 67.454 44.3651C68.4891 44.476 69.5612 44.8827 70.2267 45.6591C72.0751 47.8034 70.6333 51.0198 68.1564 51.7592C67.1212 52.0919 66.0121 52.0919 64.9031 52.018C63.4613 51.944 61.9825 51.7962 60.7625 50.9828C59.1358 49.9107 58.5813 47.4337 60.097 45.9918C60.6885 45.4373 61.4649 45.1415 62.2413 44.9197C63.3134 44.6979 64.4594 44.4391 65.6425 44.3651Z" fill="#CBBEBB"/>
<path opacity="0.2" fill-rule="evenodd" clip-rule="evenodd" d="M54.2554 47.7295C53.7008 47.9883 53.1832 48.3949 52.9245 48.7647C52.7026 49.1344 52.7396 49.541 52.8875 49.9107C52.9984 50.2065 53.1093 50.4653 53.3311 50.6871C53.9596 51.2786 55.4384 51.2786 56.1408 50.835C56.7323 50.4653 57.2129 49.541 57.102 48.8386C57.0281 48.358 56.5844 47.8404 56.1778 47.5816C55.6972 47.2489 54.9208 47.3967 54.2554 47.7295Z" fill="#CBBEBB"/>
</svg>
