<svg width="22" height="20" viewBox="0 0 22 20" fill="none" xmlns="http://www.w3.org/2000/svg">
<path d="M1.87308 10.6946C1.72351 10.6946 1.57115 10.6443 1.44674 10.5409C0.526977 9.78048 0 8.66083 0 7.4685C0 5.52974 1.4062 3.88731 3.27509 3.54904C4.15292 1.40899 6.23007 0 8.57142 0C9.45484 0 10.3019 0.195693 11.0889 0.582887C11.4202 0.746431 11.5572 1.1462 11.3936 1.47749C11.2315 1.80877 10.8303 1.94575 10.499 1.78221C9.89655 1.48587 9.24796 1.33631 8.57142 1.33631C6.66619 1.33631 4.98881 2.5538 4.39893 4.36676C4.31366 4.62675 4.08023 4.80847 3.80765 4.82664C2.42242 4.92029 1.33771 6.07908 1.33771 7.4671C1.33771 8.25966 1.68856 9.0047 2.29941 9.50931C2.58317 9.74553 2.6237 10.1663 2.38887 10.4514C2.25608 10.6108 2.06597 10.6933 1.87308 10.6933V10.6946Z" fill="#00AE6B"/>
<path d="M17.031 14.1557H10.3662C9.9972 14.1557 9.69807 13.8566 9.69807 13.4876C9.69807 13.1186 9.9972 12.8194 10.3662 12.8194H17.031C18.7545 12.8194 20.1565 11.4174 20.1565 9.69393C20.1565 7.97043 18.7545 6.56843 17.031 6.56843C16.9332 6.56843 16.8367 6.57402 16.7403 6.5838C16.4803 6.60617 16.2287 6.47757 16.0987 6.25112C15.3159 4.88686 13.8566 4.03979 12.291 4.03979C10.3858 4.03979 8.70842 5.25728 8.11854 7.07024C8.03327 7.33023 7.79983 7.51195 7.52726 7.53012C6.14202 7.62377 5.05732 8.78256 5.05732 10.1706C5.05732 11.6313 6.24546 12.8208 7.70758 12.8208C8.0766 12.8208 8.37573 13.12 8.37573 13.489C8.37573 13.858 8.0766 14.1571 7.70758 14.1571C5.50881 14.1571 3.7196 12.3679 3.7196 10.1692C3.7196 8.23182 5.12581 6.588 6.99469 6.24972C7.87112 4.11107 9.94828 2.70068 12.2896 2.70068C14.1935 2.70068 15.9771 3.65958 17.0366 5.22932C19.494 5.23352 21.4915 7.23378 21.4915 9.69253C21.4915 12.1513 19.4898 14.1557 17.0282 14.1557H17.031Z" fill="#00AE6B"/>
<path d="M16.771 19.9987H13.6455C13.2764 19.9987 12.9773 19.6995 12.9773 19.3305C12.9773 18.9615 13.2764 18.6624 13.6455 18.6624H16.771C17.4671 18.6624 18.0346 18.0949 18.0346 17.3988C18.0346 17.1066 17.9381 16.8326 17.755 16.6062C17.523 16.3182 17.5677 15.8975 17.8557 15.6655C18.1436 15.4348 18.5644 15.4782 18.7964 15.7661C19.1682 16.226 19.3723 16.8061 19.3723 17.3988C19.3723 18.8329 18.2051 20.0001 16.7724 20.0001L16.771 19.9987Z" fill="#00AE6B"/>
<path d="M2.67541 14.1571H1.00782C0.638794 14.1571 0.339661 13.858 0.339661 13.489C0.339661 13.1199 0.638794 12.8208 1.00782 12.8208H2.67541C3.04444 12.8208 3.34357 13.1199 3.34357 13.489C3.34357 13.858 3.04444 14.1571 2.67541 14.1571Z" fill="#00AE6B"/>
<path d="M2.67541 19.9984H1.00782C0.638794 19.9984 0.339661 19.6993 0.339661 19.3303C0.339661 18.9612 0.638794 18.6621 1.00782 18.6621H2.67541C3.04444 18.6621 3.34357 18.9612 3.34357 19.3303C3.34357 19.6993 3.04444 19.9984 2.67541 19.9984Z" fill="#00AE6B"/>
<path d="M15.3438 17.1036H9.01166C8.64264 17.1036 8.34351 16.8045 8.34351 16.4355C8.34351 16.0665 8.64264 15.7673 9.01166 15.7673H15.3438C15.7128 15.7673 16.0119 16.0665 16.0119 16.4355C16.0119 16.8045 15.7128 17.1036 15.3438 17.1036Z" fill="#00AE6B"/>
<path d="M1.84092 17.1036H1.00782C0.638794 17.1036 0.339661 16.8045 0.339661 16.4355C0.339661 16.0665 0.638794 15.7673 1.00782 15.7673H1.84092C2.20994 15.7673 2.50907 16.0665 2.50907 16.4355C2.50907 16.8045 2.20994 17.1036 1.84092 17.1036Z" fill="#00AE6B"/>
<path d="M7.08835 19.8824C6.63685 19.8824 5.44452 19.7999 4.63378 18.9906C3.67488 18.0317 3.73638 16.5374 3.74617 16.3697C3.76574 16.0314 4.03552 15.763 4.37379 15.7421C4.54292 15.7323 6.03579 15.6708 6.9947 16.6297C7.9536 17.5886 7.89209 19.0828 7.88231 19.2506C7.86274 19.5889 7.59296 19.8572 7.25469 19.8782C7.22953 19.8796 7.17082 19.8824 7.08835 19.8824ZM5.14538 17.1413C5.21248 17.46 5.34247 17.8066 5.5801 18.0443C5.81773 18.2819 6.16439 18.4119 6.48309 18.479C6.416 18.1603 6.286 17.8136 6.04837 17.576C5.81074 17.3384 5.46409 17.2098 5.14538 17.1413Z" fill="#00AE6B"/>
<path d="M11.0777 19.9984H9.9552C9.58618 19.9984 9.28705 19.6993 9.28705 19.3303C9.28705 18.9612 9.58618 18.6621 9.9552 18.6621H11.0777C11.4467 18.6621 11.7458 18.9612 11.7458 19.3303C11.7458 19.6993 11.4467 19.9984 11.0777 19.9984Z" fill="#00AE6B"/>
</svg>
